<?xml version="1.0" standalone="no"?>
<!DOCTYPE svg PUBLIC "-//W3C//DTD SVG 20010904//EN"
 "http://www.w3.org/TR/2001/REC-SVG-20010904/DTD/svg10.dtd">
<svg version="1.0" xmlns="http://www.w3.org/2000/svg"
 width="700.000000pt" height="700.000000pt" viewBox="0 0 700.000000 700.000000"
 preserveAspectRatio="xMidYMid meet">
<metadata>
Created by potrace 1.11, written by Peter Selinger 2001-2013
</metadata>
<g transform="translate(0.000000,700.000000) scale(0.100000,-0.100000)"
fill="#692859" stroke="none">
<path d="M3285 6994 c-305 -30 -421 -48 -631 -99 -476 -117 -944 -348 -1339
-661 -141 -113 -436 -408 -549 -549 -409 -516 -656 -1108 -742 -1780 -25 -196
-25 -614 0 -810 86 -672 333 -1264 742 -1780 113 -141 408 -436 549 -549 516
-409 1108 -656 1780 -742 196 -25 614 -25 810 0 672 86 1264 333 1780 742 141
113 436 408 549 549 409 516 656 1108 742 1780 25 196 25 614 0 810 -86 672
-333 1264 -742 1780 -113 141 -408 436 -549 549 -515 408 -1109 657 -1775 741
-117 15 -536 28 -625 19z m1300 -1308 c288 -53 444 -137 514 -278 38 -75 40
-132 9 -197 -27 -56 -347 -377 -397 -398 -39 -17 -87 -9 -100 16 -5 9 -9 66
-8 126 2 101 0 114 -25 165 -87 176 -294 271 -654 301 -403 33 -725 -102 -880
-368 -78 -132 -104 -328 -65 -483 77 -309 296 -498 890 -772 350 -161 582
-304 750 -464 170 -161 259 -302 302 -474 18 -71 21 -103 16 -200 -8 -175 -58
-310 -175 -465 -151 -203 -428 -410 -778 -584 -471 -233 -881 -327 -1319 -300
-523 31 -920 177 -1093 401 -115 149 -114 278 2 391 23 23 104 111 180 195 76
84 147 157 157 163 11 5 34 9 52 7 31 -3 31 -3 33 -63 4 -130 93 -314 209
-431 219 -221 579 -344 1007 -344 191 0 293 11 438 46 198 49 342 127 456 246
125 131 190 293 201 500 13 227 -57 403 -226 568 -137 134 -298 228 -671 395
-261 117 -371 174 -515 270 -281 187 -425 374 -471 611 -33 174 2 408 86 574
136 270 499 557 904 715 184 72 389 125 566 145 119 14 501 5 605 -14z"/>
</g>
</svg>
