<?xml version="1.0" encoding="utf-8"?>
<!-- Generator: Adobe Illustrator 22.1.0, SVG Export Plug-In . SVG Version: 6.00 Build 0)  -->
<svg version="1.1" id="Layer_1" xmlns="http://www.w3.org/2000/svg" xmlns:xlink="http://www.w3.org/1999/xlink" x="0px" y="0px"
	 width="16.435px" height="16.435px" viewBox="0 0 16.435 16.435" style="enable-background:new 0 0 16.435 16.435;"
	 xml:space="preserve">
<path class="st0" d="M10.339,8.218l5.657,5.657c0.586,0.586,0.586,1.535,0,2.121c-0.586,0.586-1.536,0.586-2.121,0l-5.657-5.657
	l-5.657,5.657c-0.586,0.586-1.536,0.586-2.121,0c-0.586-0.586-0.586-1.535,0-2.121l5.657-5.657L0.439,2.561
	c-0.586-0.586-0.586-1.536,0-2.122c0.586-0.586,1.536-0.586,2.121,0l5.657,5.657l5.657-5.657c0.586-0.586,1.535-0.586,2.121,0
	c0.586,0.586,0.586,1.536,0,2.122L10.339,8.218z"/>
</svg>
