<?xml version="1.0" encoding="utf-8"?>
<!-- Generator: Adobe Illustrator 22.1.0, SVG Export Plug-In . SVG Version: 6.00 Build 0)  -->
<svg version="1.1" id="Layer_1" xmlns="http://www.w3.org/2000/svg" xmlns:xlink="http://www.w3.org/1999/xlink" x="0px" y="0px"
	 width="72px" height="72px" viewBox="0 0 72 72" style="enable-background:new 0 0 72 72;" xml:space="preserve">
<style type="text/css">
	.st0{fill:#FFE56F;}
	.st1{fill:#262626;}
</style>
<circle class="st0" cx="42.386" cy="33.437" r="24.68"/>
<g>
	<path class="st1" d="M19.14,43.947c-4.411,0-8-3.589-8-8c0-4.411,3.589-8,8-8s8,3.589,8,8C27.14,40.358,23.551,43.947,19.14,43.947
		z M19.14,29.948c-3.309,0-6,2.691-6,6c0,3.308,2.691,6,6,6s6-2.691,6-6C25.14,32.639,22.448,29.948,19.14,29.948z"/>
	<g>
		<path class="st1" d="M33.604,18.922c-0.256,0-0.512-0.098-0.707-0.293c-0.391-0.391-0.391-1.023,0-1.414l4.614-4.614
			c0.391-0.391,1.023-0.391,1.414,0l4.615,4.614c0.391,0.39,0.391,1.023,0,1.414s-1.023,0.391-1.414,0l-3.908-3.907l-3.907,3.907
			C34.116,18.824,33.86,18.922,33.604,18.922z"/>
		<path class="st1" d="M38.219,30.053c-0.553,0-1-0.448-1-1V13.308c0-0.552,0.447-1,1-1s1,0.448,1,1v15.745
			C39.219,29.605,38.771,30.053,38.219,30.053z"/>
	</g>
	<g>
		<path class="st1" d="M57.755,42.372c-0.256,0-0.512-0.098-0.707-0.293c-0.391-0.391-0.391-1.023,0-1.414l3.907-3.908l-3.907-3.908
			c-0.391-0.391-0.391-1.023,0-1.414s1.023-0.391,1.414,0l4.614,4.615c0.391,0.391,0.391,1.024,0,1.415l-4.614,4.614
			C58.267,42.274,58.011,42.372,57.755,42.372z"/>
		<path class="st1" d="M62.369,37.757H46.624c-0.553,0-1-0.447-1-1s0.447-1,1-1h15.745c0.553,0,1,0.448,1,1
			S62.922,37.757,62.369,37.757z"/>
	</g>
	<g>
		<path class="st1" d="M56.356,26.148c-0.553,0-1-0.448-1-1v-5.526h-5.525c-0.553,0-1-0.448-1-1s0.447-1,1-1h6.525
			c0.553,0,1,0.448,1,1v6.526C57.356,25.701,56.909,26.148,56.356,26.148z"/>
		<path class="st1" d="M45.224,30.756c-0.256,0-0.512-0.098-0.707-0.293c-0.391-0.391-0.391-1.023,0-1.414l11.133-11.133
			c0.391-0.391,1.023-0.391,1.414,0s0.391,1.023,0,1.414L45.931,30.463C45.735,30.658,45.479,30.756,45.224,30.756z"/>
	</g>
</g>
<path class="st1" d="M36,72c-2.707,0-5.404-0.302-8.018-0.896c-0.456-0.104-0.778-0.508-0.778-0.975l0-19.682
	c0-0.456,0.309-0.855,0.751-0.969c1.15-0.295,4.446-1.271,5.877-2.23c3.062-2.054,5.142-5.177,5.854-8.796
	c0.094-0.473-0.003-0.952-0.271-1.351c-0.268-0.399-0.675-0.67-1.146-0.764c-0.473-0.094-0.951,0.002-1.349,0.269
	c-0.4,0.268-0.672,0.676-0.766,1.149c-0.527,2.676-2.065,4.984-4.329,6.503c-2.263,1.518-4.983,2.065-7.657,1.537
	c-0.503-0.101-3.818-0.443-5.029-0.443c-4.853,0-8.801,3.947-8.801,8.8v4.521c0,0.419-0.261,0.794-0.654,0.938
	c-0.392,0.144-0.834,0.029-1.107-0.29C3.046,52.829,0,44.547,0,36C0,25.208,4.781,15.077,13.118,8.206h0C19.539,2.914,27.666,0,36,0
	c19.851,0,36,16.149,36,36S55.851,72,36,72z M29.204,69.321C31.428,69.771,33.71,70,36,70c18.748,0,34-15.252,34-34
	C70,17.252,54.748,2,36,2c-7.872,0-15.546,2.752-21.61,7.749C6.516,16.239,2,25.807,2,36c0,7.113,2.234,14.032,6.339,19.771v-1.618
	c0-5.955,4.845-10.8,10.801-10.8c1.298,0,4.769,0.353,5.417,0.481c2.152,0.422,4.336-0.016,6.156-1.237
	c1.821-1.22,3.057-3.076,3.481-5.228c0.197-0.998,0.77-1.858,1.615-2.424c0.844-0.564,1.855-0.766,2.85-0.569
	c0.994,0.196,1.854,0.768,2.419,1.611c0.565,0.843,0.769,1.855,0.572,2.852c-0.816,4.144-3.197,7.72-6.704,10.07
	c-1.527,1.024-4.382,1.914-5.742,2.301L29.204,69.321z"/>
</svg>
