<svg id="Layer_1" xmlns="http://www.w3.org/2000/svg" width="72" height="72"><style>.st1{fill:#262626}</style><circle cx="42.386" cy="33.437" r="24.68" fill="#ffe56f"/><path class="st1" d="M19.14 43.947c-4.411 0-8-3.589-8-8s3.589-8 8-8 8 3.589 8 8-3.589 8-8 8zm0-13.999c-3.309 0-6 2.691-6 6 0 3.308 2.691 6 6 6s6-2.691 6-6-2.692-6-6-6zM33.604 18.922a.999.999 0 0 1-.707-1.707l4.614-4.614a.999.999 0 0 1 1.414 0l4.615 4.614a.999.999 0 1 1-1.414 1.414l-3.908-3.907-3.907 3.907a.997.997 0 0 1-.707.293z"/><path class="st1" d="M38.219 30.053a1 1 0 0 1-1-1V13.308a1 1 0 1 1 2 0v15.745a1 1 0 0 1-1 1zM57.755 42.372a.999.999 0 0 1-.707-1.707l3.907-3.908-3.907-3.908a.999.999 0 1 1 1.414-1.414l4.614 4.615a1 1 0 0 1 0 1.415l-4.614 4.614a.997.997 0 0 1-.707.293z"/><path class="st1" d="M62.369 37.757H46.624a1 1 0 1 1 0-2h15.745a1 1 0 1 1 0 2z"/><g><path class="st1" d="M56.356 26.148a1 1 0 0 1-1-1v-5.526h-5.525a1 1 0 1 1 0-2h6.525a1 1 0 0 1 1 1v6.526a1 1 0 0 1-1 1z"/><path class="st1" d="M45.224 30.756a.999.999 0 0 1-.707-1.707L55.65 17.916a.999.999 0 1 1 1.414 1.414L45.931 30.463a1 1 0 0 1-.707.293z"/></g><path class="st1" d="M36 72c-2.707 0-5.404-.302-8.018-.896a1 1 0 0 1-.778-.975V50.447c0-.456.309-.855.751-.969 1.15-.295 4.446-1.271 5.877-2.23a13.71 13.71 0 0 0 5.854-8.796 1.782 1.782 0 0 0-.271-1.351 1.795 1.795 0 0 0-1.146-.764 1.78 1.78 0 0 0-1.349.269c-.4.268-.672.676-.766 1.149a10.139 10.139 0 0 1-4.329 6.503 10.133 10.133 0 0 1-7.657 1.537c-.503-.101-3.818-.443-5.029-.443-4.853 0-8.801 3.947-8.801 8.8v4.521a.999.999 0 0 1-1.761.648A35.987 35.987 0 0 1 0 36C0 25.208 4.781 15.077 13.118 8.206A36.06 36.06 0 0 1 36 0c19.851 0 36 16.149 36 36S55.851 72 36 72zm-6.796-2.679c2.224.45 4.506.679 6.796.679 18.748 0 34-15.252 34-34C70 17.252 54.748 2 36 2a34.056 34.056 0 0 0-21.61 7.749C6.516 16.239 2 25.807 2 36a34.008 34.008 0 0 0 6.339 19.771v-1.618c0-5.955 4.845-10.8 10.801-10.8 1.298 0 4.769.353 5.417.481a8.155 8.155 0 0 0 6.156-1.237 8.145 8.145 0 0 0 3.481-5.228 3.777 3.777 0 0 1 1.615-2.424 3.774 3.774 0 0 1 2.85-.569 3.773 3.773 0 0 1 2.419 1.611c.565.843.769 1.855.572 2.852a15.69 15.69 0 0 1-6.704 10.07c-1.527 1.024-4.382 1.914-5.742 2.301v18.111z"/></svg>
