<?xml version="1.0" encoding="utf-8"?>
<!-- Generator: Adobe Illustrator 22.1.0, SVG Export Plug-In . SVG Version: 6.00 Build 0)  -->
<svg version="1.1" id="Layer_1" xmlns="http://www.w3.org/2000/svg" xmlns:xlink="http://www.w3.org/1999/xlink" x="0px" y="0px"
	 width="72px" height="70.608px" viewBox="0 0 72 70.608" style="enable-background:new 0 0 72 70.608;" xml:space="preserve">
<style type="text/css">
	.st0{fill:#FFE56F;}
	.st1{fill:#262626;}
</style>
<circle class="st0" cx="36" cy="34.918" r="21.35"/>
<g>
	<path class="st1" d="M16.399,40.406c-4.411,0-8-3.589-8-8c0-4.411,3.589-8,8-8s8,3.589,8,8
		C24.399,36.817,20.81,40.406,16.399,40.406z M16.399,26.406c-3.309,0-6,2.691-6,6c0,3.308,2.691,6,6,6s6-2.691,6-6
		C22.399,29.098,19.708,26.406,16.399,26.406z"/>
	<path class="st1" d="M45.8,51.611c-0.553,0-1-0.447-1-1v-8.404c0-4.853-3.947-8.8-8.8-8.8s-8.801,3.948-8.801,8.8v8.404
		c0,0.553-0.448,1-1,1s-1-0.447-1-1v-8.404c0-5.955,4.845-10.8,10.8-10.8c5.956,0,10.8,4.845,10.8,10.8v8.404
		C46.8,51.164,46.353,51.611,45.8,51.611z"/>
	<path class="st1" d="M55.601,40.406c-4.411,0-8-3.589-8-8c0-4.411,3.589-8,8-8s8,3.589,8,8
		C63.601,36.817,60.012,40.406,55.601,40.406z M55.601,26.406c-3.309,0-6,2.691-6,6c0,3.308,2.691,6,6,6s6-2.691,6-6
		C61.601,29.098,58.909,26.406,55.601,26.406z"/>
	<path class="st1" d="M36,40.406c-3.288,0-6.29-2.062-7.47-5.129c-0.198-0.516,0.059-1.094,0.575-1.292
		c0.514-0.197,1.094,0.059,1.292,0.575c0.885,2.301,3.136,3.847,5.603,3.847c2.466,0,4.717-1.546,5.602-3.846
		c0.199-0.516,0.776-0.772,1.293-0.574c0.515,0.198,0.772,0.777,0.574,1.292C42.288,38.345,39.287,40.406,36,40.406z"/>
	<path class="st1" d="M22.697,32.005H7.298c-0.552,0-1-0.448-1-1s0.448-1,1-1h15.399c0.552,0,1,0.448,1,1
		S23.25,32.005,22.697,32.005z"/>
	<path class="st1" d="M21.136,55.684h-9.474c-0.552,0-1-0.447-1-1V42.042c0-0.553,0.448-1,1-1s1,0.447,1,1v11.643h7.474V42.042
		c0-0.553,0.448-1,1-1s1,0.447,1,1v12.643C22.136,55.237,21.688,55.684,21.136,55.684z"/>
	<path class="st1" d="M36,32.001c-4.411,0-8-3.589-8-8v-4.454c-1.682-0.73-2.801-2.385-2.801-4.262c0-2.57,2.09-4.66,4.66-4.66
		h12.281c2.569,0,4.659,2.09,4.659,4.66c0,1.876-1.118,3.532-2.8,4.262v4.454C44,28.412,40.411,32.001,36,32.001z M29.859,12.625
		c-1.467,0-2.66,1.193-2.66,2.66c0,1.223,0.838,2.282,2.038,2.575C29.685,17.969,30,18.371,30,18.832v5.169c0,3.309,2.691,6,6,6
		s6-2.691,6-6v-5.169c0-0.461,0.315-0.862,0.763-0.972c1.199-0.292,2.037-1.352,2.037-2.575c0-1.467-1.193-2.66-2.659-2.66H29.859z"
		/>
	<path class="st1" d="M43,22.686H29c-0.552,0-1-0.448-1-1s0.448-1,1-1h14c0.553,0,1,0.448,1,1S43.553,22.686,43,22.686z"/>
	<path class="st1" d="M55.601,55.684c-0.553,0-1-0.447-1-1V40.811c0-0.553,0.447-1,1-1s1,0.447,1,1v13.873
		C56.601,55.237,56.153,55.684,55.601,55.684z"/>
</g>
<path class="st1" d="M45.8,70.608c-0.214,0-0.425-0.068-0.601-0.2c-0.251-0.188-0.399-0.485-0.399-0.8V50.611
	c0-5.955,4.845-10.8,10.801-10.8s10.801,4.845,10.801,10.8v3.65c0.188,0.314,0.195,0.721-0.015,1.051
	c-4.711,7.399-11.923,12.817-20.308,15.256C45.987,70.595,45.894,70.608,45.8,70.608z M55.601,41.811
	c-4.853,0-8.801,3.947-8.801,8.8v17.637c7.199-2.406,13.396-7.171,17.602-13.55c0-0.005,0-0.009,0-0.014v-4.073
	C64.401,45.758,60.453,41.811,55.601,41.811z"/>
<path class="st1" d="M26.199,70.606c-0.093,0-0.188-0.013-0.279-0.04c-8.289-2.409-15.45-7.748-20.165-15.032
	C1.99,49.715,0,42.961,0,36C0,16.149,16.149,0,36,0s36,16.149,36,36c0,6.867-1.941,13.545-5.613,19.312
	c-0.296,0.467-0.916,0.603-1.381,0.307c-0.466-0.297-0.604-0.915-0.307-1.381C68.167,48.792,70,42.486,70,36
	C70,17.252,54.748,2,36,2C17.252,2,2,17.252,2,36c0,5.332,1.235,10.534,3.599,15.241v-0.63c0-5.955,4.845-10.8,10.8-10.8
	c5.956,0,10.801,4.845,10.801,10.8v18.995c0,0.314-0.148,0.611-0.399,0.8C26.625,70.538,26.413,70.606,26.199,70.606z M7.599,54.699
	c4.207,6.377,10.411,11.145,17.601,13.548V50.611c0-4.853-3.948-8.8-8.801-8.8c-4.852,0-8.8,3.947-8.8,8.8V54.699z"/>
</svg>
