<svg id="Layer_1" xmlns="http://www.w3.org/2000/svg" width="72" height="70.608"><style>.st1{fill:#262626}</style><circle cx="36" cy="34.918" r="21.35" fill="#ffe56f"/><path class="st1" d="M16.399 40.406c-4.411 0-8-3.589-8-8s3.589-8 8-8 8 3.589 8 8-3.589 8-8 8zm0-14c-3.309 0-6 2.691-6 6 0 3.308 2.691 6 6 6s6-2.691 6-6c0-3.308-2.691-6-6-6zM45.8 51.611a1 1 0 0 1-1-1v-8.404c0-4.853-3.947-8.8-8.8-8.8s-8.801 3.948-8.801 8.8v8.404a1 1 0 1 1-2 0v-8.404c0-5.955 4.845-10.8 10.8-10.8 5.956 0 10.8 4.845 10.8 10.8v8.404a.998.998 0 0 1-.999 1zM55.601 40.406c-4.411 0-8-3.589-8-8s3.589-8 8-8 8 3.589 8 8-3.589 8-8 8zm0-14c-3.309 0-6 2.691-6 6 0 3.308 2.691 6 6 6s6-2.691 6-6c0-3.308-2.692-6-6-6z"/><path class="st1" d="M36 40.406a8.052 8.052 0 0 1-7.47-5.129 1 1 0 1 1 1.867-.717A6.038 6.038 0 0 0 36 38.407a6.038 6.038 0 0 0 5.602-3.846 1 1 0 0 1 1.867.718A8.052 8.052 0 0 1 36 40.406zM22.697 32.005H7.298a1 1 0 0 1 0-2h15.399a1 1 0 0 1 0 2zM21.136 55.684h-9.474a1 1 0 0 1-1-1V42.042a1 1 0 1 1 2 0v11.643h7.474V42.042a1 1 0 1 1 2 0v12.643a1 1 0 0 1-1 .999zM36 32.001c-4.411 0-8-3.589-8-8v-4.454a4.64 4.64 0 0 1-2.801-4.262c0-2.57 2.09-4.66 4.66-4.66H42.14a4.664 4.664 0 0 1 4.659 4.66 4.641 4.641 0 0 1-2.8 4.262v4.454c.001 4.411-3.588 8-7.999 8zm-6.141-19.376a2.663 2.663 0 0 0-2.66 2.66c0 1.223.838 2.282 2.038 2.575a1 1 0 0 1 .763.972v5.169c0 3.309 2.691 6 6 6s6-2.691 6-6v-5.169c0-.461.315-.862.763-.972a2.652 2.652 0 0 0 2.037-2.575 2.662 2.662 0 0 0-2.659-2.66H29.859z"/><path class="st1" d="M43 22.686H29a1 1 0 0 1 0-2h14a1 1 0 1 1 0 2zM55.601 55.684a1 1 0 0 1-1-1V40.811a1 1 0 1 1 2 0v13.873a1 1 0 0 1-1 1z"/><path class="st1" d="M45.8 70.608a1 1 0 0 1-1-1V50.611c0-5.955 4.845-10.8 10.801-10.8s10.801 4.845 10.801 10.8v3.65a1 1 0 0 1-.015 1.051 35.999 35.999 0 0 1-20.308 15.256.985.985 0 0 1-.279.04zm9.801-28.797c-4.853 0-8.801 3.947-8.801 8.8v17.637a34 34 0 0 0 17.602-13.55V50.611c-.001-4.853-3.949-8.8-8.801-8.8z"/><path class="st1" d="M26.199 70.606a.985.985 0 0 1-.279-.04c-8.289-2.409-15.45-7.748-20.165-15.032A35.873 35.873 0 0 1 0 36C0 16.149 16.149 0 36 0s36 16.149 36 36a35.891 35.891 0 0 1-5.613 19.312 1 1 0 1 1-1.688-1.074A33.89 33.89 0 0 0 70 36C70 17.252 54.748 2 36 2 17.252 2 2 17.252 2 36a33.901 33.901 0 0 0 3.599 15.241v-.63c0-5.955 4.845-10.8 10.8-10.8 5.956 0 10.801 4.845 10.801 10.8v18.995a1.003 1.003 0 0 1-1.001 1zm-18.6-15.907A34.029 34.029 0 0 0 25.2 68.247V50.611c0-4.853-3.948-8.8-8.801-8.8-4.852 0-8.8 3.947-8.8 8.8v4.088z"/></svg>
