<?xml version="1.0" encoding="utf-8"?>
<!-- Generator: Adobe Illustrator 22.1.0, SVG Export Plug-In . SVG Version: 6.00 Build 0)  -->
<svg version="1.1" id="Layer_1" xmlns="http://www.w3.org/2000/svg" xmlns:xlink="http://www.w3.org/1999/xlink" x="0px" y="0px"
	 width="72px" height="72px" viewBox="0 0 72 72" style="enable-background:new 0 0 72 72;" xml:space="preserve">
<style type="text/css">
	.st0{fill:#FFE56F;}
	.st1{fill:#262626;}
</style>
<circle class="st0" cx="44.126" cy="32.367" r="22.199"/>
<g>
	<path class="st1" d="M45.006,70.828c-0.553,0-1-0.447-1-1V51.312c0-5.955,4.845-10.8,10.801-10.8s10.801,4.845,10.801,10.8v4.846
		c0,0.553-0.447,1-1,1s-1-0.447-1-1v-4.846c0-4.853-3.948-8.8-8.801-8.8s-8.801,3.947-8.801,8.8v18.517
		C46.006,70.381,45.559,70.828,45.006,70.828z"/>
	<path class="st1" d="M54.807,41.106c-4.411,0-8-3.589-8-8s3.589-8,8-8s8,3.589,8,8S59.218,41.106,54.807,41.106z M54.807,27.106
		c-3.309,0-6,2.691-6,6s2.691,6,6,6s6-2.691,6-6S58.115,27.106,54.807,27.106z"/>
	<path class="st1" d="M38.101,72c-0.553,0-1-0.447-1-1V12.455H11.053c-0.552,0-1-0.448-1-1s0.448-1,1-1h27.048c0.553,0,1,0.448,1,1
		V71C39.101,71.553,38.653,72,38.101,72z"/>
	<path class="st1" d="M38.101,33.467H1.176c-0.552,0-1-0.448-1-1s0.448-1,1-1h36.924c0.553,0,1,0.448,1,1
		S38.653,33.467,38.101,33.467z"/>
	<path class="st1" d="M38.101,54.479H5.674c-0.552,0-1-0.447-1-1s0.448-1,1-1h32.426c0.553,0,1,0.447,1,1
		S38.653,54.479,38.101,54.479z"/>
	<path class="st1" d="M31.097,33.306c-0.552,0-1-0.448-1-1V16.357c0-0.552,0.448-1,1-1s1,0.448,1,1v15.948
		C32.097,32.858,31.649,33.306,31.097,33.306z"/>
	<path class="st1" d="M31.097,54.349c-0.552,0-1-0.447-1-1V37.4c0-0.552,0.448-1,1-1s1,0.448,1,1v15.948
		C32.097,53.901,31.649,54.349,31.097,54.349z"/>
	<path class="st1" d="M24.093,33.306c-0.552,0-1-0.448-1-1V16.357c0-0.552,0.448-1,1-1s1,0.448,1,1v15.948
		C25.093,32.858,24.645,33.306,24.093,33.306z"/>
	<path class="st1" d="M17.088,33.306c-0.552,0-1-0.448-1-1V16.357c0-0.552,0.448-1,1-1s1,0.448,1,1v15.948
		C18.088,32.858,17.641,33.306,17.088,33.306z"/>
	<path class="st1" d="M10.084,33.306c-0.552,0-1-0.448-1-1V19.86c0-0.552,0.448-1,1-1s1,0.448,1,1v12.446
		C11.084,32.858,10.637,33.306,10.084,33.306z"/>
	<path class="st1" d="M24.093,54.349c-0.552,0-1-0.447-1-1V37.4c0-0.552,0.448-1,1-1s1,0.448,1,1v15.948
		C25.093,53.901,24.645,54.349,24.093,54.349z"/>
	<path class="st1" d="M17.088,54.349c-0.552,0-1-0.447-1-1V37.4c0-0.552,0.448-1,1-1s1,0.448,1,1v15.948
		C18.088,53.901,17.641,54.349,17.088,54.349z"/>
	<path class="st1" d="M10.084,54.349c-0.552,0-1-0.447-1-1V37.4c0-0.552,0.448-1,1-1s1,0.448,1,1v15.948
		C11.084,53.901,10.637,54.349,10.084,54.349z"/>
</g>
<path class="st1" d="M36,72C16.149,72,0,55.851,0,36S16.149,0,36,0s36,16.149,36,36c0,7.479-2.271,14.649-6.569,20.738
	c-0.319,0.451-0.943,0.559-1.394,0.241c-0.452-0.319-0.56-0.942-0.241-1.395C67.854,49.836,70,43.063,70,36C70,17.252,54.748,2,36,2
	C17.252,2,2,17.252,2,36c0,18.748,15.252,34,34,34c2.965,0,5.908-0.383,8.75-1.137c0.534-0.141,1.081,0.177,1.224,0.71
	c0.142,0.534-0.177,1.082-0.71,1.224C42.254,71.595,39.138,72,36,72z"/>
</svg>
