<svg id="Layer_1" xmlns="http://www.w3.org/2000/svg" width="72" height="72"><style>.st1{fill:#262626}</style><circle cx="44.126" cy="32.367" r="22.199" fill="#ffe56f"/><path class="st1" d="M45.006 70.828a1 1 0 0 1-1-1V51.312c0-5.955 4.845-10.8 10.801-10.8s10.801 4.845 10.801 10.8v4.846a1 1 0 1 1-2 0v-4.846c0-4.853-3.948-8.8-8.801-8.8s-8.801 3.947-8.801 8.8v18.517a.999.999 0 0 1-1 .999z"/><path class="st1" d="M54.807 41.106c-4.411 0-8-3.589-8-8s3.589-8 8-8 8 3.589 8 8-3.589 8-8 8zm0-14c-3.309 0-6 2.691-6 6s2.691 6 6 6 6-2.691 6-6-2.692-6-6-6zM38.101 72a1 1 0 0 1-1-1V12.455H11.053a1 1 0 0 1 0-2h27.048a1 1 0 0 1 1 1V71a1 1 0 0 1-1 1z"/><path class="st1" d="M38.101 33.467H1.176a1 1 0 0 1 0-2H38.1a1 1 0 0 1 .001 2zM38.101 54.479H5.674a1 1 0 1 1 0-2H38.1a1 1 0 1 1 .001 2z"/><path class="st1" d="M31.097 33.306a1 1 0 0 1-1-1V16.357a1 1 0 0 1 2 0v15.948a1 1 0 0 1-1 1.001zM31.097 54.349a1 1 0 0 1-1-1V37.4a1 1 0 0 1 2 0v15.948a1 1 0 0 1-1 1.001zM24.093 33.306a1 1 0 0 1-1-1V16.357a1 1 0 0 1 2 0v15.948a1 1 0 0 1-1 1.001zM17.088 33.306a1 1 0 0 1-1-1V16.357a1 1 0 0 1 2 0v15.948a1 1 0 0 1-1 1.001zM10.084 33.306a1 1 0 0 1-1-1V19.86a1 1 0 0 1 2 0v12.446a1 1 0 0 1-1 1zM24.093 54.349a1 1 0 0 1-1-1V37.4a1 1 0 0 1 2 0v15.948a1 1 0 0 1-1 1.001zM17.088 54.349a1 1 0 0 1-1-1V37.4a1 1 0 0 1 2 0v15.948a1 1 0 0 1-1 1.001zM10.084 54.349a1 1 0 0 1-1-1V37.4a1 1 0 0 1 2 0v15.948a1 1 0 0 1-1 1.001z"/><path class="st1" d="M36 72C16.149 72 0 55.851 0 36S16.149 0 36 0s36 16.149 36 36c0 7.479-2.271 14.649-6.569 20.738a1.001 1.001 0 0 1-1.635-1.154C67.854 49.836 70 43.063 70 36 70 17.252 54.748 2 36 2 17.252 2 2 17.252 2 36c0 18.748 15.252 34 34 34a34.13 34.13 0 0 0 8.75-1.137 1.001 1.001 0 0 1 .514 1.934A36.16 36.16 0 0 1 36 72z"/></svg>
