<?xml version="1.0" encoding="utf-8"?>
<!-- Generator: Adobe Illustrator 22.1.0, SVG Export Plug-In . SVG Version: 6.00 Build 0)  -->
<svg version="1.1" id="Layer_1" xmlns="http://www.w3.org/2000/svg" xmlns:xlink="http://www.w3.org/1999/xlink" x="0px" y="0px"
	 width="72px" height="72px" viewBox="0 0 72 72" style="enable-background:new 0 0 72 72;" xml:space="preserve">
<style type="text/css">
	.st0{fill:#FFE56F;}
	.st1{fill:#262626;}
</style>
<circle class="st0" cx="32.692" cy="29.983" r="20.352"/>
<path class="st1" d="M33.475,55.998c-0.552,0-1-0.447-1-1v-2.895c0-4.853-3.948-8.8-8.8-8.8c-4.853,0-8.801,3.947-8.801,8.8v2.895
	c0,0.553-0.448,1-1,1s-1-0.447-1-1v-2.895c0-5.955,4.845-10.8,10.8-10.8c5.956,0,10.801,4.845,10.801,10.8v2.895
	C34.475,55.551,34.027,55.998,33.475,55.998z"/>
<rect x="32.475" y="62.793" class="st1" width="2" height="8.207"/>
<path class="st1" d="M23.675,41.898c-4.411,0-8-3.589-8-8s3.589-8,8-8s8,3.589,8,8S28.086,41.898,23.675,41.898z M23.675,27.898
	c-3.309,0-6,2.691-6,6s2.691,6,6,6s6-2.691,6-6S26.983,27.898,23.675,27.898z"/>
<path class="st1" d="M57.677,64.48c-0.148,0-0.298-0.033-0.436-0.1c-0.346-0.168-0.564-0.518-0.564-0.9V37.323
	c0-4.853-3.947-8.8-8.8-8.8s-8.801,3.948-8.801,8.8v17.675c0,0.553-0.447,1-1,1s-1-0.447-1-1V37.323c0-5.955,4.845-10.8,10.801-10.8
	c5.955,0,10.8,4.845,10.8,10.8v24.012C65.898,54.881,70,45.762,70,36C70,17.252,54.748,2,36,2C17.252,2,2,17.252,2,36
	c0,6.579,1.881,12.962,5.441,18.457c0.3,0.464,0.168,1.083-0.296,1.383c-0.464,0.302-1.082,0.167-1.383-0.295
	C1.993,49.725,0,42.966,0,36C0,16.149,16.149,0,36,0s36,16.149,36,36c0,11.085-4.995,21.388-13.703,28.266
	C58.116,64.407,57.897,64.48,57.677,64.48z"/>
<path class="st1" d="M36,72c-8.467,0-16.693-2.997-23.163-8.439c-0.423-0.355-0.477-0.986-0.122-1.409
	c0.356-0.423,0.986-0.477,1.409-0.122C20.234,67.169,28.003,70,36,70c0.36,0,0.719-0.006,1.076-0.017v-7.19c0-0.553,0.447-1,1-1
	s1,0.447,1,1v8.147c0,0.53-0.414,0.969-0.943,0.998C37.428,71.979,36.716,72,36,72z"/>
<path class="st1" d="M47.877,27.118c-4.411,0-8-3.589-8-8s3.589-8,8-8s8,3.589,8,8S52.288,27.118,47.877,27.118z M47.877,13.118
	c-3.309,0-6,2.691-6,6s2.691,6,6,6s6-2.691,6-6S51.186,13.118,47.877,13.118z"/>
<path class="st1" d="M41.968,63.793H13.482c-0.552,0-1-0.447-1-1s0.448-1,1-1h27.485v-5.795H6.606c-0.552,0-1-0.447-1-1s0.448-1,1-1
	h35.361c0.553,0,1,0.447,1,1v7.795C42.968,63.346,42.521,63.793,41.968,63.793z"/>
</svg>
