<svg id="Layer_1" xmlns="http://www.w3.org/2000/svg" width="72" height="72"><style>.st1{fill:#262626}</style><circle cx="32.692" cy="29.983" r="20.352" fill="#ffe56f"/><path class="st1" d="M33.475 55.998a1 1 0 0 1-1-1v-2.895c0-4.853-3.948-8.8-8.8-8.8-4.853 0-8.801 3.947-8.801 8.8v2.895a1 1 0 1 1-2 0v-2.895c0-5.955 4.845-10.8 10.8-10.8 5.956 0 10.801 4.845 10.801 10.8v2.895a1 1 0 0 1-1 1zM32.475 62.793h2V71h-2z"/><path class="st1" d="M23.675 41.898c-4.411 0-8-3.589-8-8s3.589-8 8-8 8 3.589 8 8-3.589 8-8 8zm0-14c-3.309 0-6 2.691-6 6s2.691 6 6 6 6-2.691 6-6-2.692-6-6-6z"/><path class="st1" d="M57.677 64.48a1 1 0 0 1-1-1V37.323c0-4.853-3.947-8.8-8.8-8.8s-8.801 3.948-8.801 8.8v17.675a1 1 0 1 1-2 0V37.323c0-5.955 4.845-10.8 10.801-10.8 5.955 0 10.8 4.845 10.8 10.8v24.012C65.898 54.881 70 45.762 70 36 70 17.252 54.748 2 36 2 17.252 2 2 17.252 2 36a33.865 33.865 0 0 0 5.441 18.457 1 1 0 0 1-1.679 1.088A35.873 35.873 0 0 1 0 36C0 16.149 16.149 0 36 0s36 16.149 36 36c0 11.085-4.995 21.388-13.703 28.266a1.01 1.01 0 0 1-.62.214zM36 72a36.034 36.034 0 0 1-23.163-8.439 1 1 0 0 1 1.287-1.531 34.033 34.033 0 0 0 22.952 7.953v-7.19a1 1 0 1 1 2 0v8.147a1 1 0 0 1-.943.998c-.705.041-1.417.062-2.133.062z"/><path class="st1" d="M47.877 27.118c-4.411 0-8-3.589-8-8s3.589-8 8-8 8 3.589 8 8-3.589 8-8 8zm0-14c-3.309 0-6 2.691-6 6s2.691 6 6 6 6-2.691 6-6-2.691-6-6-6zM41.968 63.793H13.482a1 1 0 1 1 0-2h27.485v-5.795H6.606a1 1 0 1 1 0-2h35.361a1 1 0 0 1 1 1v7.795a.998.998 0 0 1-.999 1z"/></svg>
